<?xml version="1.0" encoding="UTF-8" standalone="no"?>
<!-- Generator: Adobe Illustrator 22.0.1, SVG Export Plug-In . SVG Version: 6.00 Build 0)  -->

<svg
   xmlns:dc="http://purl.org/dc/elements/1.1/"
   xmlns:cc="http://creativecommons.org/ns#"
   xmlns:rdf="http://www.w3.org/1999/02/22-rdf-syntax-ns#"
   xmlns:svg="http://www.w3.org/2000/svg"
   xmlns="http://www.w3.org/2000/svg"
   xmlns:sodipodi="http://sodipodi.sourceforge.net/DTD/sodipodi-0.dtd"
   xmlns:inkscape="http://www.inkscape.org/namespaces/inkscape"
   version="1.1"
   id="Layer_1"
   x="0px"
   y="0px"
   viewBox="0 0 600 800"
   style="enable-background:new 0 0 600 800;"
   xml:space="preserve"
   sodipodi:docname="logo.svg"
   inkscape:version="0.92.3 (d244b95, 2018-08-02)"><metadata
   id="metadata83"><rdf:RDF><cc:Work
       rdf:about=""><dc:format>image/svg+xml</dc:format><dc:type
         rdf:resource="http://purl.org/dc/dcmitype/StillImage" /></cc:Work></rdf:RDF></metadata><defs
   id="defs81" /><sodipodi:namedview
   pagecolor="#ffffff"
   bordercolor="#666666"
   borderopacity="1"
   objecttolerance="10"
   gridtolerance="10"
   guidetolerance="10"
   inkscape:pageopacity="0"
   inkscape:pageshadow="2"
   inkscape:window-width="1296"
   inkscape:window-height="904"
   id="namedview79"
   showgrid="false"
   inkscape:snap-bbox="true"
   inkscape:zoom="0.295"
   inkscape:cx="-244.0678"
   inkscape:cy="400"
   inkscape:window-x="75"
   inkscape:window-y="34"
   inkscape:window-maximized="0"
   inkscape:current-layer="Layer_1" />
<style
   type="text/css"
   id="style2">
	.st0{fill:#B3393E;}
	.st1{fill:#B2393E;}
	.st2{fill:#FEFEFE;}
</style>
<g
   id="g76"
   transform="matrix(1.9080704,0,0,1.9825595,-272.65053,-388.55318)">
	<path
   class="st0"
   d="m 210.9,294.9 c 2.8,0 4.9,-1.5 4.6,-5 -0.2,-2.7 0,-5.5 0,-8.2 0,-8.6 0,-8.5 8.6,-8.5 2.6,0 3.4,0.6 3.4,3.3 -0.1,11.9 0,23.7 0,35.6 0,1.8 0.1,3.5 1,5.1 1.2,1.9 2.4,3.5 4.6,0.7 1.3,-1.7 3.2,-2.8 4.6,-4.4 2.8,-3.2 6.2,-4.2 10.7,-3 -3.9,3.7 -7.9,6.9 -11.3,10.6 -2.6,2.9 -5.8,6 -6.3,9.5 -0.9,7 -0.3,14.3 -0.3,21.4 7.7,-9.1 16.4,-16.5 24.7,-24.2 2.8,-2.6 4.8,-5.6 5.8,-9.3 0.8,-2.8 0.8,-6.9 2.7,-8 2.2,-1.4 6,-0.5 9.2,-0.4 1.9,0.1 4.1,-0.8 5.8,0.6 4.8,4.2 10.1,7.7 14.1,12.8 1.9,2.4 4.4,4.4 5.6,7.4 0.3,-5.6 0.6,-10.9 -0.2,-16.2 -0.8,-4.8 -0.5,-4.8 4.5,-4.5 0.2,0 0.3,0.3 0.7,0.6 -1.5,1.9 -0.7,4 0,5.9 1.1,3 2.2,3.2 4.5,0.9 1.3,-1.3 2.5,-2.8 3.8,-4.1 2.1,-2 4,-4.5 8.5,-2.8 -1.1,0.7 -1.9,1.1 -2.6,1.7 -8.4,7.2 -14.3,15.5 -12.3,27.5 0.5,3.2 -0.4,6.5 0.7,10 5.1,-6.3 9.8,-12.3 15.4,-17.7 5.8,-5.5 12.1,-10.9 13,-19.8 0.1,-1.3 0.5,-2.5 2.5,-2.4 1.9,0.1 2.3,0.9 3.1,2.4 1.7,3.3 2.9,7 6.1,9.4 4.1,3.2 8.3,6.2 12.8,8.8 4.8,2.8 8.6,6.8 11.8,11.3 0.5,0.8 0.7,2.2 2,1.8 1.3,-0.4 1.2,-1.8 1,-2.9 -0.9,-3.8 -0.8,-7.7 -0.6,-11.6 0.2,-3.2 -0.9,-5.8 -2.9,-8.2 -3,-3.6 -5.9,-7.1 -8.8,-10.7 7.3,-2.7 7.9,5.3 12.6,7.6 0,-11.8 0,-23.5 0,-35.9 1.1,2.2 1.9,3.5 2.2,5.1 2.5,9.8 4.3,7.7 11,7.8 0.7,0 1.5,0 2.2,0 5.1,0 6.2,-1.5 4.7,-6.4 -1.8,-5.9 -3.6,-11.9 -5.4,-17.8 -3.3,-10.9 -6.5,-21.9 -9.8,-32.8 -0.5,-1.5 -1.5,-2.9 -2.9,-2.9 -2.6,0.1 -2.3,-1.5 -2.3,-3.1 0,-8.7 0,-17.5 0,-26.2 -48.8,0 -97.5,0 -146.2,0 0,15 -0.1,30 -0.1,45 0,8.6 0,8.5 -8.7,8.3 -2.5,-0.1 -3.3,-1 -3.2,-3.3 0.1,-5.4 0.1,-10.7 0,-16.1 0,-3 -1.6,-4.5 -4.6,-4.6 -2,0 -4,0 -6,0 -4.8,0 -5.2,0.3 -5.2,5.1 0,15 0,30 0,45 0,11.7 -0.9,9.8 11.2,9.8 z m 134.3,-5.1 c 3.4,-11.1 6.4,-22.4 9.9,-33.5 1.8,-5.8 3.6,-11.6 5.2,-17.4 0.4,-1.4 1.3,-1.6 2.5,-1.6 1.9,0 3.7,0 5.6,0 8,0 7.7,0.1 9.9,7.9 2.9,10.4 6.4,20.6 9.6,30.9 1.5,4.8 2.6,9.6 4.2,14.3 0.8,2.3 -1.3,2.1 -1.9,2.2 -2.5,0.3 -5,0.4 -7.5,0 -1.4,-0.2 -2.9,-0.9 -3.2,-3 -0.2,-1.1 -0.5,-2.4 -0.8,-3.5 -2,-6.4 -2.6,-6.8 -9.3,-6.8 -0.4,0 -0.7,0 -1.1,0 -10.9,-0.4 -7.8,0.5 -11,9.1 -1.5,3.9 -8.1,6.4 -11.5,3.9 -0.8,-0.8 -1,-1.4 -0.6,-2.5 z m -36,-52.6 c 8.1,0.2 16.2,0.2 24.4,0 3.5,-0.1 4.2,1.9 4.2,4.7 0,2.6 -0.4,4.7 -4.1,4.5 -4.3,-0.3 -8.7,0 -13.1,-0.1 -2.7,0 -3.9,1.2 -3.8,3.8 0.1,2.6 0.2,5.3 0,7.9 -0.2,2.8 1.1,3.4 3.6,3.3 4,-0.1 8,0 12,-0.1 2.7,0 4.5,0.9 4.7,3.9 0.2,2.7 0.1,5 -3.6,5.5 -3.3,0.4 -6.7,0.7 -9.9,0 -5.1,-1.2 -6.7,-0.1 -6.7,5 0.1,8.5 -1.1,7.3 7.3,7.4 3.6,0 7.2,0 10.9,0 3.4,0 3.7,2.1 3.7,4.7 0,2.6 0.3,5.1 -3.5,5 -8.7,-0.1 -17.5,0 -26.2,0 -2.4,0 -3.4,-1 -3.4,-3.6 0.1,-8.1 0.1,-16.2 0.1,-24.4 0,-7.9 0.1,-15.7 -0.1,-23.6 -0.3,-2.8 0.3,-4 3.5,-3.9 z m -52.4,28.4 c 0,-7.5 0,-15 0,-22.5 0,-4 1.1,-4.9 5,-5.1 4.6,-0.3 9.1,-1 13.7,-0.7 3.7,0.2 7.2,1 10.7,2.3 9,3.3 12.5,15.5 4.4,23.6 -3.9,3.9 -3.8,4 -0.8,8.5 3.9,5.8 4,12.9 6.6,19.2 0.5,1.1 -0.6,1.2 -1.2,1.4 -2.9,1 -6.1,1.1 -8.8,0.2 -2.6,-0.8 -2.7,-4.3 -3.2,-6.6 -0.7,-3.5 -1.5,-6.8 -3,-10.1 -1.6,-3.6 -6.4,-5.9 -10,-4.6 -1.7,0.7 -2.2,2.1 -2.2,3.9 0.1,4.7 -0.1,9.5 0.1,14.2 0.1,2.5 -0.6,3.8 -3.4,3.5 -1.1,-0.1 -2.2,0 -3.4,0 -3.1,0 -4.7,-1.2 -4.6,-4.7 0.2,-7.5 0.1,-15 0.1,-22.5 z m -51.4,-28.4 c 0.7,0.1 1.5,0.1 2.2,0 4.8,-0.4 5.8,1 5.6,5.4 -0.2,4.7 0.1,9.5 -0.1,14.2 -0.1,3.3 1.3,4.5 4.5,4.4 4.1,-0.1 8.2,-0.1 12.4,0 3,0.1 4.3,-1.1 4.2,-4.2 -0.1,-5.4 0.1,-10.8 -0.1,-16.1 -0.1,-3.1 1,-4.1 3.9,-3.7 0.9,0.1 1.8,0.1 2.6,0 3.5,-0.4 4.9,1.2 4.8,4.7 -0.1,15.4 -0.1,30.7 0,46.1 0,3.5 -1.5,4.7 -4.6,4.7 -1.1,0 -2.3,-0.1 -3.4,0 -2.7,0.3 -3.4,-1 -3.4,-3.5 0.1,-4.7 0,-9.5 0.1,-14.2 0,-2.8 -1.2,-4.1 -4,-4 -4.1,0.1 -8.2,0 -12.4,0 -3,0 -4.9,1 -4.7,4.6 0.2,4.2 -0.1,8.5 0.1,12.7 0.2,3.2 -1.4,4.2 -4.1,4.4 -7.2,0.6 -7.2,0.6 -7.2,-6.7 0,-7 0,-14 0,-21 0,-8.1 0.1,-16.2 0,-24.4 0.1,-2.6 1.1,-3.7 3.6,-3.4 z"
   id="path4"
   inkscape:connector-curvature="0"
   style="fill:#b3393e" />
	<path
   class="st1"
   d="m 401.1,294.1 c 2.9,0 5.6,0.9 8.4,0.9 7.4,0.1 14.6,-0.6 21.8,-2.9 4.3,-1.4 7.9,-3.5 10.9,-6.7 7.4,-7.9 8,-17.8 7,-27.7 -0.5,-5 -2.5,-9.8 -6.1,-13.8 -6.2,-7 -14.5,-8.1 -23,-8.9 -5.5,-0.5 -11.1,0.1 -16.7,0.6 -3.6,0.3 -5,1.6 -5.1,5.3 0,8.1 0,16.2 0,24.3 0,8.2 0,16.5 0,24.7 0.2,2.2 0.5,4.2 2.8,4.2 z m 4,-56.1 c 4.6,0.1 9.1,-1.3 13.7,-0.7 7.9,1 15.9,1.6 21.8,8 6.2,6.7 7.5,14.7 6.3,23.3 -0.7,5.3 -2.5,10.4 -6.1,14.6 -5,5.8 -11.8,7.4 -18.8,8.8 -6.1,1.2 -12.2,0.9 -18.4,0.1 -2.4,-0.3 -2.9,-1.2 -2.9,-3.3 0.1,-7.9 0,-15.7 0,-23.6 0,-7.6 0.1,-15.2 0,-22.8 0,-3.2 1.2,-4.5 4.4,-4.4 z"
   id="path6"
   inkscape:connector-curvature="0"
   style="fill:#b2393e" />
	<path
   class="st0"
   d="m 161.3,248.5 c 0.2,0 0.5,0 0.7,0 2.9,-0.2 4.1,1 4.1,4.1 -0.2,12.4 -0.1,24.7 -0.1,37.1 0,4.1 1,5.1 5.2,5.3 2.1,0.1 4.3,-0.1 6.4,0 3.1,0.2 4.2,-1.2 4.2,-4.2 -0.1,-6.4 0,-12.7 0,-19.1 0,-5.6 0,-11.2 0,-16.9 0,-6.3 0,-6.4 6.3,-6.3 10,0.2 8.6,0 8.7,-9.4 0,-2.7 -1.4,-4.1 -4.1,-4.1 -12.7,0 -25.5,0 -38.2,0 -1.6,0 -2.4,0.5 -2.7,2.3 -1.4,10.6 -1,11.1 9.5,11.2 z M 160,237.2 c 10.1,0 20.2,0 30.4,0 1.8,0 3.5,0.3 3.9,2.1 0.5,2 0.7,4.2 -0.2,6.2 -0.4,0.9 -1.5,0.8 -2.4,0.8 -2.2,0 -4.5,0.2 -6.7,0 -4.4,-0.5 -5.5,1.3 -5.5,5.7 0.1,6.1 0,12.2 0,18.4 0,6.2 -0.1,12.5 0.1,18.7 0.1,3.1 -1,4.1 -3.9,3.7 -0.9,-0.1 -1.7,0 -2.6,0 -3.3,0 -4.9,-1.1 -4.8,-4.8 0.2,-12.4 0,-24.7 0.1,-37.1 0,-3.3 -1.5,-4.5 -4.4,-4.5 -2.4,-0.1 -4.8,-0.2 -7.1,0 -2.4,0.2 -2.9,-0.7 -2.9,-2.9 0,-6.2 -0.1,-6.3 6,-6.3 z"
   id="path8"
   inkscape:connector-curvature="0"
   style="fill:#b3393e" />
	<g
   id="g56">
		<path
   class="st0"
   d="M 434.3,574.8 C 427.1,560.4 417,547.8 408,534.6 395.6,516.4 383.5,498 370.2,480.4 c -7,-9.1 -13.8,-18.3 -21.5,-26.9 -1.6,-1.8 -3,-1.9 -4,0.3 -2,4.4 -3.7,8.9 -5.6,13.4 -0.4,0.9 -0.5,1.5 0,2.4 5.6,10.9 13,20.5 19.1,31.1 5.8,10.1 13,19.4 19.5,29.1 7.4,11.1 14.1,22.6 22.4,33 8,10.1 16,20.2 25.3,29.3 5.5,-0.1 11.1,-0.1 16.6,-0.2 0.6,-3.1 -0.1,-5.9 -1.9,-8.5 -2.1,-2.8 -4.2,-5.6 -5.8,-8.6 z"
   id="path10"
   inkscape:connector-curvature="0"
   style="fill:#b3393e" />
		<path
   class="st0"
   d="m 442,507.2 c -19,-12.9 -34.8,-29.4 -51.4,-45.1 -13.4,-12.7 -25.8,-26.5 -39.7,-38.7 -5.2,-4.6 -10.5,-9 -15.9,-13.7 -0.6,3.3 0.5,6.2 -1,8.7 -0.9,1.6 -0.5,2.6 0.5,4 6.8,9.6 13.5,19.2 20.1,28.8 6,8.6 12.9,16.5 19.7,24.4 8,9.3 16.5,18.1 25.2,26.6 6.7,6.6 15.1,10.8 22.8,16.1 7.9,5.4 16.1,10.1 25.6,13.7 0,-4.3 -0.3,-8.3 0.1,-12.2 0.6,-5.7 -1,-9.2 -6,-12.6 z"
   id="path12"
   inkscape:connector-curvature="0"
   style="fill:#b3393e" />
		<path
   class="st0"
   d="m 239.6,479 c 9.2,-9.8 18.1,-19.5 24,-32.1 4.1,-8.7 7.5,-17.1 7.9,-27.3 -6.5,5.7 -13.1,10.6 -20.1,14.9 -0.5,0.3 -1,0.8 -1.3,1.3 -1.7,4.2 -4.7,7.6 -7.1,11.3 -5.9,9 -11.7,18 -19.9,25 -4.7,4 -8.8,8.4 -13.3,12.6 -1.4,1.4 -2.8,3 -4.4,4.1 -17.2,11.5 -32.7,25.3 -50.8,35.4 -2.6,1.5 -4,3.3 -3.6,6.5 0.4,3.8 0.2,7.7 0,11.6 -0.1,2.8 0.7,2.7 2.9,1.8 4.8,-2.1 9.6,-4 14.1,-6.8 26.6,-16 50.3,-35.7 71.6,-58.3 z"
   id="path14"
   inkscape:connector-curvature="0"
   style="fill:#b3393e" />
		<path
   class="st0"
   d="m 315.8,559.9 c -6.9,-15.5 -13.7,-31 -21.3,-46.2 -9.1,-18.3 -18.7,-36.3 -27.3,-54.8 -1.3,-2.8 -2.8,-2.8 -4,-0.6 -2.4,4.6 -6.2,8.4 -8.3,13.3 -0.7,1.6 -1,3.2 -0.4,4.7 1.7,4.2 3.5,8.5 5.6,12.6 4.3,8.4 9.5,16.3 13.3,24.9 6.7,15.2 15.1,29.5 20.8,45.2 4.1,11.2 9,22 13.5,33 6.2,0 12.3,0 18.5,0 -0.7,-2 -1.4,-4 -2.1,-5.9 -2.7,-8.8 -4.5,-17.8 -8.3,-26.2 z"
   id="path16"
   inkscape:connector-curvature="0"
   style="fill:#b3393e" />
		<path
   class="st0"
   d="m 393.4,583.7 c -5.7,-4.7 -11,-9.9 -14.6,-16.4 -4.8,-8.7 -9.6,-17.4 -13.8,-26.4 -6.9,-14.7 -14,-29.3 -21.7,-43.6 -2.7,-5.1 -5.6,-10.2 -10.3,-13.9 -0.6,1.6 -1.1,3.1 -1.8,4.4 -2.7,5.2 -5.4,10.3 -8.1,15.5 -0.5,0.9 -1,1.6 -0.4,3 3.4,7.8 7.6,15.1 12.2,22.2 11,17 20.9,34.6 29.3,53.1 1.9,4.2 4.4,7.8 8,10.5 5.3,0 10.6,0 16,0 1.6,-0.9 3.3,-1.8 4.9,-2.7 4.2,-2.4 4.1,-2.5 0.3,-5.7 z"
   id="path18"
   inkscape:connector-curvature="0"
   style="fill:#b3393e" />
		<path
   class="st0"
   d="m 253.6,507.5 c 1.6,-2 2.1,-4.4 1.4,-7 -2,-7.2 -4,-14.4 -6.1,-21.9 -1,1 -1.8,1.6 -2.3,2.4 -7.9,12.6 -15.8,25.3 -23.7,38 -8.8,14 -18.3,27.5 -28.5,40.6 -7.7,10 -16.1,19.7 -21,31.6 0.9,1.2 2.2,0.8 3.4,0.8 4.7,0.1 9.3,0.1 14,0.1 1.2,-0.1 2.5,0.1 3.4,-1.1 1.9,-2.5 3.9,-4.9 5.7,-7.4 3.5,-5 5.7,-10.8 9.7,-15.5 10.4,-12.1 18.8,-25.7 28.7,-38.2 5.7,-7.1 9.7,-15.3 15.3,-22.4 z"
   id="path20"
   inkscape:connector-curvature="0"
   style="fill:#b3393e" />
		<path
   class="st0"
   d="m 151.1,480.4 c 7.6,-3.4 14.9,-6.4 22.3,-9.1 13,-4.8 25.4,-11.1 37.5,-17.8 14.1,-7.9 28.2,-15.7 41.2,-25.5 7.9,-5.9 15,-12.8 20.9,-20.8 1.5,-2 1.6,-3.8 -0.6,-5.4 -1.8,-1.4 -2.9,-3.3 -3.4,-5.6 -0.3,-1.3 1.1,-3.2 -1.2,-3.8 -2.1,-0.5 -3.1,1.1 -4.3,2.3 -6.7,6.5 -13.3,13.1 -20.2,19.4 -2.2,2 -5.3,2.9 -7.4,5 -9.2,9 -20.2,15.4 -31.4,21.1 -16,8.2 -33.1,13.7 -50.3,19 -2.2,0.7 -3.2,1.5 -3.1,4 0.2,5.6 0,11.1 0,17.2 z"
   id="path22"
   inkscape:connector-curvature="0"
   style="fill:#b3393e" />
		<path
   class="st0"
   d="m 343.7,407.9 c 7.6,6.4 15.1,12.7 24.2,17.3 8.5,4.3 16.3,9.9 24.8,14.3 14.4,7.5 29.6,12.5 45.7,15.2 8.2,1.4 9.6,0.6 9.6,-7.6 0,-1.4 -0.2,-2.8 0,-4.1 0.4,-3 -0.6,-4.1 -3.7,-4.9 -7.5,-1.9 -15.4,-2.4 -22.6,-5.7 -4.2,-1.9 -8.4,-3.6 -12.8,-5 -10.1,-3.2 -19.6,-7.8 -28.4,-13.6 -5.4,-3.5 -10.5,-7.6 -16.1,-10.9 -9.9,-5.9 -18.8,-13 -25.2,-22.9 -0.6,-0.9 -0.7,-2.5 -2,-2.4 -1.5,0.1 -2.1,1.5 -2.6,2.8 -0.4,1 -0.4,1.9 -0.5,2.9 -0.1,5.7 2.1,10.9 3.7,16.2 0.9,3.6 3.2,6.1 5.9,8.4 z"
   id="path24"
   inkscape:connector-curvature="0"
   style="fill:#b3393e" />
		<path
   class="st0"
   d="m 275.6,532.6 c -0.9,-1.7 -1.4,-4.2 -3.7,-4.3 -2.4,-0.1 -4.2,1.7 -5.2,3.7 -2.7,5.9 -6.8,11 -9.7,16.7 -7.2,14.2 -16.3,27.5 -20.5,43.2 7.6,0.1 15.1,0.1 22.7,0.2 1,-0.9 1.5,-2.2 2.2,-3.4 6.4,-10.8 10.6,-22.7 16,-34 2.4,-5 4.7,-10.5 1.2,-16.2 -1.2,-1.8 -2,-3.9 -3,-5.9 z"
   id="path26"
   inkscape:connector-curvature="0"
   style="fill:#b3393e" />
		<path
   class="st0"
   d="m 302.6,512.5 c 3.6,-4.7 7.3,-8.9 10.2,-13.6 4.7,-7.6 9.7,-15 14.4,-22.6 5.6,-9.1 10.9,-18.2 13.8,-28.7 1.6,-5.9 -1.4,-9.6 -4.2,-13.7 -1.1,-1.7 -2.5,-1.7 -3.7,0.3 -2.2,3.7 -4.7,7.3 -6.8,11.1 -9.1,16.6 -18.2,33.3 -28.8,49.1 -0.7,1.1 -1.2,1.9 -0.6,3.4 2,4.8 3.7,9.5 5.7,14.7 z"
   id="path28"
   inkscape:connector-curvature="0"
   style="fill:#b3393e" />
		<path
   class="st0"
   d="m 302.2,468.1 c 1.3,2.8 2.4,2.9 4,0.6 2.6,-3.8 5.4,-7.4 7.4,-11.6 0.7,-1.5 0.6,-2.6 -0.1,-4.1 -2,-4.5 -5.4,-8.1 -7.9,-12.2 -6,-9.7 -13.9,-17.5 -21.9,-25.4 -1.4,-1.3 -2.3,-1.7 -3.1,0.7 -1.2,3.5 -3,6.9 -2.1,10.7 -0.7,3.9 0.3,6.9 3.4,9.6 3.3,2.9 6.7,6.2 9,10 4.2,7 7.8,14.3 11.3,21.7 z"
   id="path30"
   inkscape:connector-curvature="0"
   style="fill:#b3393e" />
		<path
   class="st0"
   d="m 234.6,383.8 c 3.9,-4.9 8.6,-8.7 14.4,-11.4 4,-1.9 7.4,-5.6 9.1,-10 2.6,-6.5 3.8,-13.3 3.1,-20.4 0,-2.1 0.1,-4.2 0,-6.4 -0.1,-1 0.7,-2.4 -0.6,-3 -1.5,-0.6 -2.3,0.8 -3,1.7 -5.5,6.7 -11.8,12.5 -17.9,18.5 -5.8,5.7 -8.8,12.5 -9.8,20.4 -0.4,3.6 -0.2,7.2 1.8,10.5 0.8,1.3 1.5,1.8 2.9,0.1 z"
   id="path32"
   inkscape:connector-curvature="0"
   style="fill:#b3393e" />
		<path
   class="st0"
   d="m 228.7,417.1 c 1.5,1 2.8,-0.2 4,-1.1 1.3,-0.9 2.7,-1.7 4.1,-2.5 8,-5 14.8,-11.2 19.7,-19.5 5.3,-9.1 4.1,-19.3 5.3,-29 -1.1,-0.3 -1.3,0.4 -1.6,0.9 -3.4,5 -7.1,9.5 -12,13.2 -7,5.2 -13.9,10.5 -16.9,19.3 -1.6,4.8 -3.1,9.7 -3.8,14.7 -0.2,1.4 -0.1,3.1 1.2,4 z"
   id="path34"
   inkscape:connector-curvature="0"
   style="fill:#b3393e" />
		<path
   class="st0"
   d="m 271.3,330.8 c 4.1,9.6 10.9,17.1 18.2,24.3 3.5,3.4 6.8,6.8 8.6,11.8 4.1,-2.7 3,-6.4 2.9,-10 -0.4,-9.4 -2.1,-18.3 -9,-25.3 -5.6,-5.8 -11.4,-11.5 -17.2,-17.2 -1.2,-1.1 -2.4,-3.3 -4.1,-2.5 -1.4,0.7 -0.6,3 -0.5,4.5 0.4,4.8 -0.9,9.6 1.1,14.4 z"
   id="path36"
   inkscape:connector-curvature="0"
   style="fill:#b3393e" />
		<path
   class="st0"
   d="m 340.6,341.7 c 4.8,6.7 9.7,13.3 16.3,18.3 5.2,3.9 10.1,8.1 13.5,13.8 0.4,0.8 0.7,1.7 1.8,1.3 1.2,-0.4 0.8,-1.4 0.8,-2.2 0.1,-2.6 0,-5.2 0,-8.2 -0.7,-3.4 1.2,-7.4 -1,-10.7 -2.8,-4.4 -6.1,-8.5 -10.3,-11.7 -6.7,-5.2 -12.5,-11.4 -18.4,-17.5 -0.7,-0.8 -1.1,-2.4 -2.4,-1.8 -1.2,0.5 -1.5,2 -1.5,3.2 -0.1,3.2 -0.3,6.5 0.1,9.7 0.3,1.9 -0.1,4 1.1,5.8 z"
   id="path38"
   inkscape:connector-curvature="0"
   style="fill:#b3393e" />
		<path
   class="st0"
   d="m 373.4,399.2 c -0.4,-3.3 -1.2,-6.2 -1.1,-9.2 0.1,-5 -2,-9.1 -5,-12.5 -8.8,-9.9 -19.8,-17.6 -28,-28.7 -0.4,28.7 8.5,39.7 34.1,50.4 z"
   id="path40"
   inkscape:connector-curvature="0"
   style="fill:#b3393e" />
		<path
   class="st0"
   d="m 299.4,392.8 c 0.7,0.6 1.6,0.6 1.5,-0.5 -0.1,-4.4 1,-9 -0.8,-13.3 -2.6,-6.1 -6.4,-11.4 -11,-16.2 -6.1,-6.3 -13.3,-11.6 -17.8,-19.8 -0.3,1.4 -0.7,2.4 -0.8,3.4 -1.4,8.4 -1.8,16.7 3.8,23.8 7.1,8.9 16.9,15 25.1,22.6 z"
   id="path42"
   inkscape:connector-curvature="0"
   style="fill:#b3393e" />
		<path
   class="st0"
   d="m 303.6,405.9 c 1.2,0.4 1.7,-0.8 2.4,-1.4 3.3,-3.2 6.5,-6.6 9.9,-9.6 5.5,-4.8 9.9,-10.5 13.9,-16.5 0.8,-1.2 1.7,-2.6 1.8,-4 0.9,-6.9 1.8,-13.8 1.5,-22 -4.6,8.6 -10.6,14.3 -17.2,19.7 -9.8,8 -12.7,19.1 -13.5,31.1 0,0.9 -0.2,2.2 1.2,2.7 z"
   id="path44"
   inkscape:connector-curvature="0"
   style="fill:#b3393e" />
		<path
   class="st0"
   d="m 315.3,365.1 c 4,-3.4 7.4,-7.4 10.9,-11.3 3.3,-3.7 6.1,-8 7,-12.9 0.8,-4.4 0.2,-9 0.2,-13.4 0,-0.8 0.4,-2 -0.7,-2.3 -0.9,-0.3 -1.6,0.6 -2.1,1.3 -4.8,6.5 -10.7,12.1 -16,18.3 -2.8,3.3 -5.6,6.6 -7.3,10.7 -2.8,6.8 -2.2,13.7 -0.9,20.7 2.3,-4.4 5.3,-8 8.9,-11.1 z"
   id="path46"
   inkscape:connector-curvature="0"
   style="fill:#b3393e" />
		<path
   class="st0"
   d="m 329.3,392.7 c -1.9,-0.8 -2.7,0.8 -3.6,1.8 -3.6,4 -7.3,7.8 -11.4,11.4 -3.7,3.2 -7.4,6.6 -10.3,10.8 -3.8,5.4 -3.8,10.4 0.2,15.3 1.1,1.3 1.9,1 3.1,0.1 6.5,-4.9 12.3,-10.5 18.4,-15.9 1.9,-1.6 3.7,-3.6 3.8,-6.2 0.1,-3.6 1.5,-7.1 1,-9.8 0,-1.9 0.1,-2.9 0,-3.9 -0.3,-1.2 0.6,-2.8 -1.2,-3.6 z"
   id="path48"
   inkscape:connector-curvature="0"
   style="fill:#b3393e" />
		<path
   class="st0"
   d="m 294.7,398 c -5,-3.6 -9.4,-7.8 -13.3,-12.5 -3.6,-4.3 -7.9,-7.9 -11.3,-12.5 -0.8,9.7 0.5,18.7 7.4,26 2.5,2.7 4.8,5.7 7.4,8.4 2.8,3 5.8,5.8 8.7,8.8 0.9,0.9 2.1,1.7 3.3,1.5 1.6,-0.3 1.3,-1.9 1.6,-3.1 0.8,-3.2 -0.4,-6.4 -0.1,-9.7 0.1,-2.9 -1.3,-5.2 -3.7,-6.9 z"
   id="path50"
   inkscape:connector-curvature="0"
   style="fill:#b3393e" />
		<path
   class="st0"
   d="m 271.5,447.8 c -0.2,0.2 -0.3,0.4 -0.5,0.6 -1,1.1 -1.1,2.2 -0.3,3.4 3.7,5.5 6.7,11.3 9.5,17.2 0.9,1.8 1.6,1.7 2.9,0.4 3.7,-3.6 3.9,-8.4 4.6,-14 1.2,-3.2 -1.7,-5.5 -4.1,-8 -6.6,-6.8 -5.3,-6.3 -12.1,0.4 z"
   id="path52"
   inkscape:connector-curvature="0"
   style="fill:#b3393e" />
		<path
   class="st0"
   d="m 324.6,425.8 c -3.3,2.4 -6.5,4.9 -10.2,6.8 -0.7,0.4 -1.6,0.6 -1.7,1.7 0,1.7 5.7,7.2 7.5,7.1 1,0 1.6,-0.4 2,-1.3 1.5,-4 4.7,-6.9 6.7,-10.6 0.7,-1.4 1.5,-2.3 -0.1,-3.7 -1.6,-1.4 -2.7,-1.2 -4.2,0 z"
   id="path54"
   inkscape:connector-curvature="0"
   style="fill:#b3393e" />
	</g>
	<path
   class="st2"
   d="m 202,265 c 0,7 0,14 0,21 0,7.3 0,7.4 7.2,6.7 2.7,-0.2 4.3,-1.2 4.1,-4.4 -0.2,-4.2 0.1,-8.5 -0.1,-12.7 -0.2,-3.6 1.6,-4.6 4.7,-4.6 4.1,0 8.2,0.1 12.4,0 2.8,-0.1 4.1,1.2 4,4 -0.1,4.7 0.1,9.5 -0.1,14.2 -0.1,2.5 0.6,3.8 3.4,3.5 1.1,-0.1 2.2,0 3.4,0 3.1,0 4.7,-1.2 4.6,-4.7 -0.1,-15.4 -0.1,-30.7 0,-46.1 0,-3.6 -1.3,-5.1 -4.8,-4.7 -0.9,0.1 -1.8,0.1 -2.6,0 -2.9,-0.4 -4.1,0.7 -3.9,3.7 0.2,5.4 0,10.7 0.1,16.1 0.1,3 -1.2,4.3 -4.2,4.2 -4.1,-0.1 -8.3,-0.1 -12.4,0 -3.2,0.1 -4.6,-1.1 -4.5,-4.4 0.1,-4.7 -0.1,-9.5 0.1,-14.2 0.2,-4.4 -0.8,-5.8 -5.6,-5.4 -0.7,0.1 -1.5,0.1 -2.2,0 -2.6,-0.3 -3.5,0.7 -3.5,3.4 0,8.2 -0.1,16.3 -0.1,24.4 z"
   id="path58"
   inkscape:connector-curvature="0"
   style="fill:#fefefe" />
	<path
   class="st2"
   d="m 261.3,292.7 c 1.1,0 2.3,-0.1 3.4,0 2.7,0.3 3.4,-1 3.4,-3.5 -0.1,-4.7 0,-9.5 -0.1,-14.2 0,-1.8 0.4,-3.3 2.2,-3.9 3.6,-1.4 8.3,1 10,4.6 1.5,3.3 2.3,6.6 3,10.1 0.5,2.4 0.6,5.8 3.2,6.6 2.7,0.9 5.9,0.8 8.8,-0.2 0.6,-0.2 1.7,-0.3 1.2,-1.4 -2.6,-6.3 -2.6,-13.4 -6.6,-19.2 -3.1,-4.5 -3.1,-4.6 0.8,-8.5 8.1,-8.1 4.6,-20.4 -4.4,-23.6 -3.5,-1.2 -7,-2.1 -10.7,-2.3 -4.6,-0.3 -9.1,0.4 -13.7,0.7 -3.9,0.2 -5,1.2 -5,5.1 0,7.5 0,15 0,22.5 0,7.5 0.1,15 -0.1,22.5 -0.1,3.6 1.5,4.7 4.6,4.7 z m 14.3,-47.2 c 5,0.1 8.7,4.5 8.2,9.3 -0.6,5.3 -7.1,9.8 -12.4,8.7 -1.6,-0.3 -2.6,-1.4 -2.6,-3.1 0,-2.1 0,-4.2 0,-6.3 0,-0.5 0,-1 0,-1.5 0.1,-7.8 -1.4,-7.2 6.8,-7.1 z"
   id="path60"
   inkscape:connector-curvature="0"
   style="fill:#fefefe" />
	<path
   class="st2"
   d="m 345.8,292.2 c 3.4,2.6 10.1,0 11.5,-3.9 3.2,-8.5 0.1,-9.4 11,-9.1 0.4,0 0.7,0 1.1,0 6.7,0 7.3,0.4 9.3,6.8 0.4,1.2 0.7,2.4 0.8,3.5 0.3,2.1 1.8,2.8 3.2,3 2.4,0.3 5,0.2 7.5,0 0.5,-0.1 2.6,0.1 1.9,-2.2 -1.6,-4.7 -2.7,-9.6 -4.2,-14.3 -3.2,-10.3 -6.7,-20.6 -9.6,-30.9 -2.2,-7.8 -1.9,-7.9 -9.9,-7.9 -1.9,0 -3.7,0 -5.6,0 -1.2,0 -2.2,0.2 -2.5,1.6 -1.6,5.9 -3.4,11.6 -5.2,17.4 -3.5,11.1 -6.5,22.3 -9.9,33.5 -0.4,1.2 -0.2,1.8 0.6,2.5 z m 17.5,-27.3 c 1,-3.1 1.9,-6.2 2.3,-9.5 0.2,-1.3 0.6,-3.1 2.6,-3.1 1.8,0 2.3,1.7 2.4,2.8 0.4,3.3 1.6,6.4 2.4,9.5 1.6,6.3 1.5,6.4 -5.1,6.4 -5.9,0 -6.3,-0.6 -4.6,-6.1 z"
   id="path62"
   inkscape:connector-curvature="0"
   style="fill:#fefefe" />
	<path
   class="st2"
   d="m 305.5,264.8 c 0,8.1 0.1,16.2 -0.1,24.4 0,2.6 1,3.6 3.4,3.6 8.7,0 17.5,0 26.2,0 3.8,0 3.5,-2.5 3.5,-5 0,-2.6 -0.3,-4.8 -3.7,-4.7 -3.6,0 -7.2,0 -10.9,0 -8.4,-0.1 -7.2,1.1 -7.3,-7.4 0,-5.1 1.6,-6.2 6.7,-5 3.3,0.7 6.6,0.4 9.9,0 3.7,-0.5 3.8,-2.8 3.6,-5.5 -0.2,-2.9 -2,-3.9 -4.7,-3.9 -4,0.1 -8,-0.1 -12,0.1 -2.5,0.1 -3.7,-0.6 -3.6,-3.3 0.2,-2.6 0.1,-5.2 0,-7.9 -0.1,-2.7 1.1,-3.9 3.8,-3.8 4.4,0.1 8.8,-0.2 13.1,0.1 3.7,0.3 4,-1.9 4.1,-4.5 0,-2.7 -0.7,-4.7 -4.2,-4.7 -8.1,0.2 -16.2,0.2 -24.4,0 -3.1,-0.1 -3.8,1.2 -3.7,4 0.4,7.7 0.3,15.6 0.3,23.5 z"
   id="path64"
   inkscape:connector-curvature="0"
   style="fill:#fefefe" />
	<path
   class="st2"
   d="m 400.8,265.2 c 0,7.9 0,15.7 0,23.6 0,2.1 0.5,3 2.9,3.3 6.2,0.7 12.3,1.1 18.4,-0.1 7,-1.4 13.8,-3 18.8,-8.8 3.6,-4.2 5.4,-9.3 6.1,-14.6 1.1,-8.5 -0.1,-16.6 -6.3,-23.3 -5.9,-6.4 -14,-6.9 -21.8,-8 -4.6,-0.6 -9.1,0.8 -13.7,0.7 -3.2,-0.1 -4.5,1.2 -4.4,4.4 0,7.6 0,15.2 0,22.8 z m 11.2,-0.5 c 0,-5.1 0,-10.2 0,-15.3 0,-2.2 0.7,-3.7 3,-3.8 9.7,-0.6 17.4,2.2 19.7,12.8 1.9,8.5 1,16.4 -6.7,22.4 -3.9,3 -8.8,3.5 -13.7,3 -1.8,-0.2 -2.4,-1.8 -2.4,-3.6 0.2,-5.3 0.1,-10.4 0.1,-15.5 z"
   id="path66"
   inkscape:connector-curvature="0"
   style="fill:#fefefe" />
	<path
   class="st2"
   d="m 156.8,246.3 c 2.4,-0.2 4.7,-0.1 7.1,0 2.9,0.1 4.4,1.2 4.4,4.5 -0.2,12.4 0.1,24.8 -0.1,37.1 -0.1,3.7 1.6,4.9 4.8,4.8 0.9,0 1.8,-0.1 2.6,0 2.9,0.4 4,-0.7 3.9,-3.7 -0.2,-6.2 -0.1,-12.5 -0.1,-18.7 0,-6.1 0.1,-12.3 0,-18.4 -0.1,-4.4 1,-6.2 5.5,-5.7 2.2,0.2 4.5,0 6.7,0 0.9,0 1.9,0.2 2.4,-0.8 0.9,-2 0.7,-4.2 0.2,-6.2 -0.4,-1.8 -2.1,-2.1 -3.9,-2.1 -10.1,0.1 -20.2,0 -30.4,0 -6.1,0 -6,0 -6,6.1 0,2.4 0.5,3.3 2.9,3.1 z"
   id="path68"
   inkscape:connector-curvature="0"
   style="fill:#fefefe" />
	<path
   class="st0"
   d="m 268.8,252.5 c 0,0.5 0,1 0,1.5 0,2.1 0,4.2 0,6.3 0,1.7 1,2.8 2.6,3.1 5.3,1.1 11.8,-3.4 12.4,-8.7 0.6,-4.8 -3.2,-9.2 -8.2,-9.3 -8.2,0 -6.7,-0.6 -6.8,7.1 z"
   id="path70"
   inkscape:connector-curvature="0"
   style="fill:#b3393e" />
	<path
   class="st0"
   d="m 367.9,271 c 6.6,0 6.6,0 5.1,-6.4 -0.8,-3.2 -2,-6.2 -2.4,-9.5 -0.1,-1.1 -0.6,-2.9 -2.4,-2.8 -2,0 -2.4,1.8 -2.6,3.1 -0.4,3.3 -1.4,6.4 -2.3,9.5 -1.7,5.5 -1.3,6.1 4.6,6.1 z"
   id="path72"
   inkscape:connector-curvature="0"
   style="fill:#b3393e" />
	<path
   class="st0"
   d="m 414.4,283.6 c 4.8,0.5 9.8,0.1 13.7,-3 7.7,-6 8.6,-13.9 6.7,-22.4 -2.3,-10.6 -10,-13.4 -19.7,-12.8 -2.4,0.2 -3.1,1.7 -3,3.8 0.1,5.1 0,10.2 0,15.3 0,5.1 0.1,10.2 0,15.3 -0.2,2.1 0.5,3.7 2.3,3.8 z m 2.7,-35.9 c 11.9,0 17.5,9.6 15.6,20 -1.3,7.5 -5.8,12.4 -13.7,13.7 -3.7,0.6 -4.8,0 -4.8,-3.8 0,-4.4 0,-8.7 0,-13.1 0,-4.6 0.1,-9.2 0,-13.9 0,-2 0.8,-2.9 2.9,-2.9 z"
   id="path74"
   inkscape:connector-curvature="0"
   style="fill:#b3393e" />
</g>
</svg>