<?xml version="1.0" encoding="utf-8"?>
<!-- Generator: Adobe Illustrator 22.0.1, SVG Export Plug-In . SVG Version: 6.00 Build 0)  -->
<svg version="1.1" id="Layer_1" xmlns="http://www.w3.org/2000/svg" xmlns:xlink="http://www.w3.org/1999/xlink" x="0px" y="0px"
	 viewBox="0 0 600 800" style="enable-background:new 0 0 600 800;" xml:space="preserve">
<style type="text/css">
	.st0{fill:#B3393E;}
	.st1{fill:#B2393E;}
	.st2{fill:#FEFEFE;}
</style>
<g>
	<path class="st0" d="M210.9,294.9c2.8,0,4.9-1.5,4.6-5c-0.2-2.7,0-5.5,0-8.2c0-8.6,0-8.5,8.6-8.5c2.6,0,3.4,0.6,3.4,3.3
		c-0.1,11.9,0,23.7,0,35.6c0,1.8,0.1,3.5,1,5.1c1.2,1.9,2.4,3.5,4.6,0.7c1.3-1.7,3.2-2.8,4.6-4.4c2.8-3.2,6.2-4.2,10.7-3
		c-3.9,3.7-7.9,6.9-11.3,10.6c-2.6,2.9-5.8,6-6.3,9.5c-0.9,7-0.3,14.3-0.3,21.4c7.7-9.1,16.4-16.5,24.7-24.2
		c2.8-2.6,4.8-5.6,5.8-9.3c0.8-2.8,0.8-6.9,2.7-8c2.2-1.4,6-0.5,9.2-0.4c1.9,0.1,4.1-0.8,5.8,0.6c4.8,4.2,10.1,7.7,14.1,12.8
		c1.9,2.4,4.4,4.4,5.6,7.4c0.3-5.6,0.6-10.9-0.2-16.2c-0.8-4.8-0.5-4.8,4.5-4.5c0.2,0,0.3,0.3,0.7,0.6c-1.5,1.9-0.7,4,0,5.9
		c1.1,3,2.2,3.2,4.5,0.9c1.3-1.3,2.5-2.8,3.8-4.1c2.1-2,4-4.5,8.5-2.8c-1.1,0.7-1.9,1.1-2.6,1.7c-8.4,7.2-14.3,15.5-12.3,27.5
		c0.5,3.2-0.4,6.5,0.7,10c5.1-6.3,9.8-12.3,15.4-17.7c5.8-5.5,12.1-10.9,13-19.8c0.1-1.3,0.5-2.5,2.5-2.4c1.9,0.1,2.3,0.9,3.1,2.4
		c1.7,3.3,2.9,7,6.1,9.4c4.1,3.2,8.3,6.2,12.8,8.8c4.8,2.8,8.6,6.8,11.8,11.3c0.5,0.8,0.7,2.2,2,1.8c1.3-0.4,1.2-1.8,1-2.9
		c-0.9-3.8-0.8-7.7-0.6-11.6c0.2-3.2-0.9-5.8-2.9-8.2c-3-3.6-5.9-7.1-8.8-10.7c7.3-2.7,7.9,5.3,12.6,7.6c0-11.8,0-23.5,0-35.9
		c1.1,2.2,1.9,3.5,2.2,5.1c2.5,9.8,4.3,7.7,11,7.8c0.7,0,1.5,0,2.2,0c5.1,0,6.2-1.5,4.7-6.4c-1.8-5.9-3.6-11.9-5.4-17.8
		c-3.3-10.9-6.5-21.9-9.8-32.8c-0.5-1.5-1.5-2.9-2.9-2.9c-2.6,0.1-2.3-1.5-2.3-3.1c0-8.7,0-17.5,0-26.2c-48.8,0-97.5,0-146.2,0
		c0,15-0.1,30-0.1,45c0,8.6,0,8.5-8.7,8.3c-2.5-0.1-3.3-1-3.2-3.3c0.1-5.4,0.1-10.7,0-16.1c0-3-1.6-4.5-4.6-4.6c-2,0-4,0-6,0
		c-4.8,0-5.2,0.3-5.2,5.1c0,15,0,30,0,45C199.7,296.8,198.8,294.9,210.9,294.9z M345.2,289.8c3.4-11.1,6.4-22.4,9.9-33.5
		c1.8-5.8,3.6-11.6,5.2-17.4c0.4-1.4,1.3-1.6,2.5-1.6c1.9,0,3.7,0,5.6,0c8,0,7.7,0.1,9.9,7.9c2.9,10.4,6.4,20.6,9.6,30.9
		c1.5,4.8,2.6,9.6,4.2,14.3c0.8,2.3-1.3,2.1-1.9,2.2c-2.5,0.3-5,0.4-7.5,0c-1.4-0.2-2.9-0.9-3.2-3c-0.2-1.1-0.5-2.4-0.8-3.5
		c-2-6.4-2.6-6.8-9.3-6.8c-0.4,0-0.7,0-1.1,0c-10.9-0.4-7.8,0.5-11,9.1c-1.5,3.9-8.1,6.4-11.5,3.9
		C345,291.5,344.8,290.9,345.2,289.8z M309.2,237.2c8.1,0.2,16.2,0.2,24.4,0c3.5-0.1,4.2,1.9,4.2,4.7c0,2.6-0.4,4.7-4.1,4.5
		c-4.3-0.3-8.7,0-13.1-0.1c-2.7,0-3.9,1.2-3.8,3.8c0.1,2.6,0.2,5.3,0,7.9c-0.2,2.8,1.1,3.4,3.6,3.3c4-0.1,8,0,12-0.1
		c2.7,0,4.5,0.9,4.7,3.9c0.2,2.7,0.1,5-3.6,5.5c-3.3,0.4-6.7,0.7-9.9,0c-5.1-1.2-6.7-0.1-6.7,5c0.1,8.5-1.1,7.3,7.3,7.4
		c3.6,0,7.2,0,10.9,0c3.4,0,3.7,2.1,3.7,4.7c0,2.6,0.3,5.1-3.5,5c-8.7-0.1-17.5,0-26.2,0c-2.4,0-3.4-1-3.4-3.6
		c0.1-8.1,0.1-16.2,0.1-24.4c0-7.9,0.1-15.7-0.1-23.6C305.4,238.3,306,237.1,309.2,237.2z M256.8,265.6c0-7.5,0-15,0-22.5
		c0-4,1.1-4.9,5-5.1c4.6-0.3,9.1-1,13.7-0.7c3.7,0.2,7.2,1,10.7,2.3c9,3.3,12.5,15.5,4.4,23.6c-3.9,3.9-3.8,4-0.8,8.5
		c3.9,5.8,4,12.9,6.6,19.2c0.5,1.1-0.6,1.2-1.2,1.4c-2.9,1-6.1,1.1-8.8,0.2c-2.6-0.8-2.7-4.3-3.2-6.6c-0.7-3.5-1.5-6.8-3-10.1
		c-1.6-3.6-6.4-5.9-10-4.6c-1.7,0.7-2.2,2.1-2.2,3.9c0.1,4.7-0.1,9.5,0.1,14.2c0.1,2.5-0.6,3.8-3.4,3.5c-1.1-0.1-2.2,0-3.4,0
		c-3.1,0-4.7-1.2-4.6-4.7C256.9,280.6,256.8,273.1,256.8,265.6z M205.4,237.2c0.7,0.1,1.5,0.1,2.2,0c4.8-0.4,5.8,1,5.6,5.4
		c-0.2,4.7,0.1,9.5-0.1,14.2c-0.1,3.3,1.3,4.5,4.5,4.4c4.1-0.1,8.2-0.1,12.4,0c3,0.1,4.3-1.1,4.2-4.2c-0.1-5.4,0.1-10.8-0.1-16.1
		c-0.1-3.1,1-4.1,3.9-3.7c0.9,0.1,1.8,0.1,2.6,0c3.5-0.4,4.9,1.2,4.8,4.7c-0.1,15.4-0.1,30.7,0,46.1c0,3.5-1.5,4.7-4.6,4.7
		c-1.1,0-2.3-0.1-3.4,0c-2.7,0.3-3.4-1-3.4-3.5c0.1-4.7,0-9.5,0.1-14.2c0-2.8-1.2-4.1-4-4c-4.1,0.1-8.2,0-12.4,0c-3,0-4.9,1-4.7,4.6
		c0.2,4.2-0.1,8.5,0.1,12.7c0.2,3.2-1.4,4.2-4.1,4.4c-7.2,0.6-7.2,0.6-7.2-6.7c0-7,0-14,0-21c0-8.1,0.1-16.2,0-24.4
		C201.9,238,202.9,236.9,205.4,237.2z"/>
	<path class="st1" d="M401.1,294.1c2.9,0,5.6,0.9,8.4,0.9c7.4,0.1,14.6-0.6,21.8-2.9c4.3-1.4,7.9-3.5,10.9-6.7
		c7.4-7.9,8-17.8,7-27.7c-0.5-5-2.5-9.8-6.1-13.8c-6.2-7-14.5-8.1-23-8.9c-5.5-0.5-11.1,0.1-16.7,0.6c-3.6,0.3-5,1.6-5.1,5.3
		c0,8.1,0,16.2,0,24.3c0,8.2,0,16.5,0,24.7C398.5,292.1,398.8,294.1,401.1,294.1z M405.1,238c4.6,0.1,9.1-1.3,13.7-0.7
		c7.9,1,15.9,1.6,21.8,8c6.2,6.7,7.5,14.7,6.3,23.3c-0.7,5.3-2.5,10.4-6.1,14.6c-5,5.8-11.8,7.4-18.8,8.8
		c-6.1,1.2-12.2,0.9-18.4,0.1c-2.4-0.3-2.9-1.2-2.9-3.3c0.1-7.9,0-15.7,0-23.6c0-7.6,0.1-15.2,0-22.8
		C400.7,239.2,401.9,237.9,405.1,238z"/>
	<path class="st0" d="M161.3,248.5c0.2,0,0.5,0,0.7,0c2.9-0.2,4.1,1,4.1,4.1c-0.2,12.4-0.1,24.7-0.1,37.1c0,4.1,1,5.1,5.2,5.3
		c2.1,0.1,4.3-0.1,6.4,0c3.1,0.2,4.2-1.2,4.2-4.2c-0.1-6.4,0-12.7,0-19.1c0-5.6,0-11.2,0-16.9c0-6.3,0-6.4,6.3-6.3
		c10,0.2,8.6,0,8.7-9.4c0-2.7-1.4-4.1-4.1-4.1c-12.7,0-25.5,0-38.2,0c-1.6,0-2.4,0.5-2.7,2.3C150.4,247.9,150.8,248.4,161.3,248.5z
		 M160,237.2c10.1,0,20.2,0,30.4,0c1.8,0,3.5,0.3,3.9,2.1c0.5,2,0.7,4.2-0.2,6.2c-0.4,0.9-1.5,0.8-2.4,0.8c-2.2,0-4.5,0.2-6.7,0
		c-4.4-0.5-5.5,1.3-5.5,5.7c0.1,6.1,0,12.2,0,18.4c0,6.2-0.1,12.5,0.1,18.7c0.1,3.1-1,4.1-3.9,3.7c-0.9-0.1-1.7,0-2.6,0
		c-3.3,0-4.9-1.1-4.8-4.8c0.2-12.4,0-24.7,0.1-37.1c0-3.3-1.5-4.5-4.4-4.5c-2.4-0.1-4.8-0.2-7.1,0c-2.4,0.2-2.9-0.7-2.9-2.9
		C154,237.3,153.9,237.2,160,237.2z"/>
	<g>
		<path class="st0" d="M434.3,574.8c-7.2-14.4-17.3-27-26.3-40.2c-12.4-18.2-24.5-36.6-37.8-54.2c-7-9.1-13.8-18.3-21.5-26.9
			c-1.6-1.8-3-1.9-4,0.3c-2,4.4-3.7,8.9-5.6,13.4c-0.4,0.9-0.5,1.5,0,2.4c5.6,10.9,13,20.5,19.1,31.1c5.8,10.1,13,19.4,19.5,29.1
			c7.4,11.1,14.1,22.6,22.4,33c8,10.1,16,20.2,25.3,29.3c5.5-0.1,11.1-0.1,16.6-0.2c0.6-3.1-0.1-5.9-1.9-8.5
			C438,580.6,435.9,577.8,434.3,574.8z"/>
		<path class="st0" d="M442,507.2c-19-12.9-34.8-29.4-51.4-45.1c-13.4-12.7-25.8-26.5-39.7-38.7c-5.2-4.6-10.5-9-15.9-13.7
			c-0.6,3.3,0.5,6.2-1,8.7c-0.9,1.6-0.5,2.6,0.5,4c6.8,9.6,13.5,19.2,20.1,28.8c6,8.6,12.9,16.5,19.7,24.4
			c8,9.3,16.5,18.1,25.2,26.6c6.7,6.6,15.1,10.8,22.8,16.1c7.9,5.4,16.1,10.1,25.6,13.7c0-4.3-0.3-8.3,0.1-12.2
			C448.6,514.1,447,510.6,442,507.2z"/>
		<path class="st0" d="M239.6,479c9.2-9.8,18.1-19.5,24-32.1c4.1-8.7,7.5-17.1,7.9-27.3c-6.5,5.7-13.1,10.6-20.1,14.9
			c-0.5,0.3-1,0.8-1.3,1.3c-1.7,4.2-4.7,7.6-7.1,11.3c-5.9,9-11.7,18-19.9,25c-4.7,4-8.8,8.4-13.3,12.6c-1.4,1.4-2.8,3-4.4,4.1
			c-17.2,11.5-32.7,25.3-50.8,35.4c-2.6,1.5-4,3.3-3.6,6.5c0.4,3.8,0.2,7.7,0,11.6c-0.1,2.8,0.7,2.7,2.9,1.8c4.8-2.1,9.6-4,14.1-6.8
			C194.6,521.3,218.3,501.6,239.6,479z"/>
		<path class="st0" d="M315.8,559.9c-6.9-15.5-13.7-31-21.3-46.2c-9.1-18.3-18.7-36.3-27.3-54.8c-1.3-2.8-2.8-2.8-4-0.6
			c-2.4,4.6-6.2,8.4-8.3,13.3c-0.7,1.6-1,3.2-0.4,4.7c1.7,4.2,3.5,8.5,5.6,12.6c4.3,8.4,9.5,16.3,13.3,24.9
			c6.7,15.2,15.1,29.5,20.8,45.2c4.1,11.2,9,22,13.5,33c6.2,0,12.3,0,18.5,0c-0.7-2-1.4-4-2.1-5.9
			C321.4,577.3,319.6,568.3,315.8,559.9z"/>
		<path class="st0" d="M393.4,583.7c-5.7-4.7-11-9.9-14.6-16.4c-4.8-8.7-9.6-17.4-13.8-26.4c-6.9-14.7-14-29.3-21.7-43.6
			c-2.7-5.1-5.6-10.2-10.3-13.9c-0.6,1.6-1.1,3.1-1.8,4.4c-2.7,5.2-5.4,10.3-8.1,15.5c-0.5,0.9-1,1.6-0.4,3
			c3.4,7.8,7.6,15.1,12.2,22.2c11,17,20.9,34.6,29.3,53.1c1.9,4.2,4.4,7.8,8,10.5c5.3,0,10.6,0,16,0c1.6-0.9,3.3-1.8,4.9-2.7
			C397.3,587,397.2,586.9,393.4,583.7z"/>
		<path class="st0" d="M253.6,507.5c1.6-2,2.1-4.4,1.4-7c-2-7.2-4-14.4-6.1-21.9c-1,1-1.8,1.6-2.3,2.4c-7.9,12.6-15.8,25.3-23.7,38
			c-8.8,14-18.3,27.5-28.5,40.6c-7.7,10-16.1,19.7-21,31.6c0.9,1.2,2.2,0.8,3.4,0.8c4.7,0.1,9.3,0.1,14,0.1c1.2-0.1,2.5,0.1,3.4-1.1
			c1.9-2.5,3.9-4.9,5.7-7.4c3.5-5,5.7-10.8,9.7-15.5c10.4-12.1,18.8-25.7,28.7-38.2C244,522.8,248,514.6,253.6,507.5z"/>
		<path class="st0" d="M151.1,480.4c7.6-3.4,14.9-6.4,22.3-9.1c13-4.8,25.4-11.1,37.5-17.8c14.1-7.9,28.2-15.7,41.2-25.5
			c7.9-5.9,15-12.8,20.9-20.8c1.5-2,1.6-3.8-0.6-5.4c-1.8-1.4-2.9-3.3-3.4-5.6c-0.3-1.3,1.1-3.2-1.2-3.8c-2.1-0.5-3.1,1.1-4.3,2.3
			c-6.7,6.5-13.3,13.1-20.2,19.4c-2.2,2-5.3,2.9-7.4,5c-9.2,9-20.2,15.4-31.4,21.1c-16,8.2-33.1,13.7-50.3,19
			c-2.2,0.7-3.2,1.5-3.1,4C151.3,468.8,151.1,474.3,151.1,480.4z"/>
		<path class="st0" d="M343.7,407.9c7.6,6.4,15.1,12.7,24.2,17.3c8.5,4.3,16.3,9.9,24.8,14.3c14.4,7.5,29.6,12.5,45.7,15.2
			c8.2,1.4,9.6,0.6,9.6-7.6c0-1.4-0.2-2.8,0-4.1c0.4-3-0.6-4.1-3.7-4.9c-7.5-1.9-15.4-2.4-22.6-5.7c-4.2-1.9-8.4-3.6-12.8-5
			c-10.1-3.2-19.6-7.8-28.4-13.6c-5.4-3.5-10.5-7.6-16.1-10.9c-9.9-5.9-18.8-13-25.2-22.9c-0.6-0.9-0.7-2.5-2-2.4
			c-1.5,0.1-2.1,1.5-2.6,2.8c-0.4,1-0.4,1.9-0.5,2.9c-0.1,5.7,2.1,10.9,3.7,16.2C338.7,403.1,341,405.6,343.7,407.9z"/>
		<path class="st0" d="M275.6,532.6c-0.9-1.7-1.4-4.2-3.7-4.3c-2.4-0.1-4.2,1.7-5.2,3.7c-2.7,5.9-6.8,11-9.7,16.7
			c-7.2,14.2-16.3,27.5-20.5,43.2c7.6,0.1,15.1,0.1,22.7,0.2c1-0.9,1.5-2.2,2.2-3.4c6.4-10.8,10.6-22.7,16-34
			c2.4-5,4.7-10.5,1.2-16.2C277.4,536.7,276.6,534.6,275.6,532.6z"/>
		<path class="st0" d="M302.6,512.5c3.6-4.7,7.3-8.9,10.2-13.6c4.7-7.6,9.7-15,14.4-22.6c5.6-9.1,10.9-18.2,13.8-28.7
			c1.6-5.9-1.4-9.6-4.2-13.7c-1.1-1.7-2.5-1.7-3.7,0.3c-2.2,3.7-4.7,7.3-6.8,11.1c-9.1,16.6-18.2,33.3-28.8,49.1
			c-0.7,1.1-1.2,1.9-0.6,3.4C298.9,502.6,300.6,507.3,302.6,512.5z"/>
		<path class="st0" d="M302.2,468.1c1.3,2.8,2.4,2.9,4,0.6c2.6-3.8,5.4-7.4,7.4-11.6c0.7-1.5,0.6-2.6-0.1-4.1
			c-2-4.5-5.4-8.1-7.9-12.2c-6-9.7-13.9-17.5-21.9-25.4c-1.4-1.3-2.3-1.7-3.1,0.7c-1.2,3.5-3,6.9-2.1,10.7c-0.7,3.9,0.3,6.9,3.4,9.6
			c3.3,2.9,6.7,6.2,9,10C295.1,453.4,298.7,460.7,302.2,468.1z"/>
		<path class="st0" d="M234.6,383.8c3.9-4.9,8.6-8.7,14.4-11.4c4-1.9,7.4-5.6,9.1-10c2.6-6.5,3.8-13.3,3.1-20.4c0-2.1,0.1-4.2,0-6.4
			c-0.1-1,0.7-2.4-0.6-3c-1.5-0.6-2.3,0.8-3,1.7c-5.5,6.7-11.8,12.5-17.9,18.5c-5.8,5.7-8.8,12.5-9.8,20.4
			c-0.4,3.6-0.2,7.2,1.8,10.5C232.5,385,233.2,385.5,234.6,383.8z"/>
		<path class="st0" d="M228.7,417.1c1.5,1,2.8-0.2,4-1.1c1.3-0.9,2.7-1.7,4.1-2.5c8-5,14.8-11.2,19.7-19.5c5.3-9.1,4.1-19.3,5.3-29
			c-1.1-0.3-1.3,0.4-1.6,0.9c-3.4,5-7.1,9.5-12,13.2c-7,5.2-13.9,10.5-16.9,19.3c-1.6,4.8-3.1,9.7-3.8,14.7
			C227.3,414.5,227.4,416.2,228.7,417.1z"/>
		<path class="st0" d="M271.3,330.8c4.1,9.6,10.9,17.1,18.2,24.3c3.5,3.4,6.8,6.8,8.6,11.8c4.1-2.7,3-6.4,2.9-10
			c-0.4-9.4-2.1-18.3-9-25.3c-5.6-5.8-11.4-11.5-17.2-17.2c-1.2-1.1-2.4-3.3-4.1-2.5c-1.4,0.7-0.6,3-0.5,4.5
			C270.6,321.2,269.3,326,271.3,330.8z"/>
		<path class="st0" d="M340.6,341.7c4.8,6.7,9.7,13.3,16.3,18.3c5.2,3.9,10.1,8.1,13.5,13.8c0.4,0.8,0.7,1.7,1.8,1.3
			c1.2-0.4,0.8-1.4,0.8-2.2c0.1-2.6,0-5.2,0-8.2c-0.7-3.4,1.2-7.4-1-10.7c-2.8-4.4-6.1-8.5-10.3-11.7c-6.7-5.2-12.5-11.4-18.4-17.5
			c-0.7-0.8-1.1-2.4-2.4-1.8c-1.2,0.5-1.5,2-1.5,3.2c-0.1,3.2-0.3,6.5,0.1,9.7C339.8,337.8,339.4,339.9,340.6,341.7z"/>
		<path class="st0" d="M373.4,399.2c-0.4-3.3-1.2-6.2-1.1-9.2c0.1-5-2-9.1-5-12.5c-8.8-9.9-19.8-17.6-28-28.7
			C338.9,377.5,347.8,388.5,373.4,399.2z"/>
		<path class="st0" d="M299.4,392.8c0.7,0.6,1.6,0.6,1.5-0.5c-0.1-4.4,1-9-0.8-13.3c-2.6-6.1-6.4-11.4-11-16.2
			c-6.1-6.3-13.3-11.6-17.8-19.8c-0.3,1.4-0.7,2.4-0.8,3.4c-1.4,8.4-1.8,16.7,3.8,23.8C281.4,379.1,291.2,385.2,299.4,392.8z"/>
		<path class="st0" d="M303.6,405.9c1.2,0.4,1.7-0.8,2.4-1.4c3.3-3.2,6.5-6.6,9.9-9.6c5.5-4.8,9.9-10.5,13.9-16.5
			c0.8-1.2,1.7-2.6,1.8-4c0.9-6.9,1.8-13.8,1.5-22c-4.6,8.6-10.6,14.3-17.2,19.7c-9.8,8-12.7,19.1-13.5,31.1
			C302.4,404.1,302.2,405.4,303.6,405.9z"/>
		<path class="st0" d="M315.3,365.1c4-3.4,7.4-7.4,10.9-11.3c3.3-3.7,6.1-8,7-12.9c0.8-4.4,0.2-9,0.2-13.4c0-0.8,0.4-2-0.7-2.3
			c-0.9-0.3-1.6,0.6-2.1,1.3c-4.8,6.5-10.7,12.1-16,18.3c-2.8,3.3-5.6,6.6-7.3,10.7c-2.8,6.8-2.2,13.7-0.9,20.7
			C308.7,371.8,311.7,368.2,315.3,365.1z"/>
		<path class="st0" d="M329.3,392.7c-1.9-0.8-2.7,0.8-3.6,1.8c-3.6,4-7.3,7.8-11.4,11.4c-3.7,3.2-7.4,6.6-10.3,10.8
			c-3.8,5.4-3.8,10.4,0.2,15.3c1.1,1.3,1.9,1,3.1,0.1c6.5-4.9,12.3-10.5,18.4-15.9c1.9-1.6,3.7-3.6,3.8-6.2c0.1-3.6,1.5-7.1,1-9.8
			c0-1.9,0.1-2.9,0-3.9C330.2,395.1,331.1,393.5,329.3,392.7z"/>
		<path class="st0" d="M294.7,398c-5-3.6-9.4-7.8-13.3-12.5c-3.6-4.3-7.9-7.9-11.3-12.5c-0.8,9.7,0.5,18.7,7.4,26
			c2.5,2.7,4.8,5.7,7.4,8.4c2.8,3,5.8,5.8,8.7,8.8c0.9,0.9,2.1,1.7,3.3,1.5c1.6-0.3,1.3-1.9,1.6-3.1c0.8-3.2-0.4-6.4-0.1-9.7
			C298.5,402,297.1,399.7,294.7,398z"/>
		<path class="st0" d="M271.5,447.8c-0.2,0.2-0.3,0.4-0.5,0.6c-1,1.1-1.1,2.2-0.3,3.4c3.7,5.5,6.7,11.3,9.5,17.2
			c0.9,1.8,1.6,1.7,2.9,0.4c3.7-3.6,3.9-8.4,4.6-14c1.2-3.2-1.7-5.5-4.1-8C277,440.6,278.3,441.1,271.5,447.8z"/>
		<path class="st0" d="M324.6,425.8c-3.3,2.4-6.5,4.9-10.2,6.8c-0.7,0.4-1.6,0.6-1.7,1.7c0,1.7,5.7,7.2,7.5,7.1c1,0,1.6-0.4,2-1.3
			c1.5-4,4.7-6.9,6.7-10.6c0.7-1.4,1.5-2.3-0.1-3.7C327.2,424.4,326.1,424.6,324.6,425.8z"/>
	</g>
	<path class="st2" d="M202,265c0,7,0,14,0,21c0,7.3,0,7.4,7.2,6.7c2.7-0.2,4.3-1.2,4.1-4.4c-0.2-4.2,0.1-8.5-0.1-12.7
		c-0.2-3.6,1.6-4.6,4.7-4.6c4.1,0,8.2,0.1,12.4,0c2.8-0.1,4.1,1.2,4,4c-0.1,4.7,0.1,9.5-0.1,14.2c-0.1,2.5,0.6,3.8,3.4,3.5
		c1.1-0.1,2.2,0,3.4,0c3.1,0,4.7-1.2,4.6-4.7c-0.1-15.4-0.1-30.7,0-46.1c0-3.6-1.3-5.1-4.8-4.7c-0.9,0.1-1.8,0.1-2.6,0
		c-2.9-0.4-4.1,0.7-3.9,3.7c0.2,5.4,0,10.7,0.1,16.1c0.1,3-1.2,4.3-4.2,4.2c-4.1-0.1-8.3-0.1-12.4,0c-3.2,0.1-4.6-1.1-4.5-4.4
		c0.1-4.7-0.1-9.5,0.1-14.2c0.2-4.4-0.8-5.8-5.6-5.4c-0.7,0.1-1.5,0.1-2.2,0c-2.6-0.3-3.5,0.7-3.5,3.4
		C202.1,248.8,202,256.9,202,265z"/>
	<path class="st2" d="M261.3,292.7c1.1,0,2.3-0.1,3.4,0c2.7,0.3,3.4-1,3.4-3.5c-0.1-4.7,0-9.5-0.1-14.2c0-1.8,0.4-3.3,2.2-3.9
		c3.6-1.4,8.3,1,10,4.6c1.5,3.3,2.3,6.6,3,10.1c0.5,2.4,0.6,5.8,3.2,6.6c2.7,0.9,5.9,0.8,8.8-0.2c0.6-0.2,1.7-0.3,1.2-1.4
		c-2.6-6.3-2.6-13.4-6.6-19.2c-3.1-4.5-3.1-4.6,0.8-8.5c8.1-8.1,4.6-20.4-4.4-23.6c-3.5-1.2-7-2.1-10.7-2.3
		c-4.6-0.3-9.1,0.4-13.7,0.7c-3.9,0.2-5,1.2-5,5.1c0,7.5,0,15,0,22.5c0,7.5,0.1,15-0.1,22.5C256.6,291.6,258.2,292.7,261.3,292.7z
		 M275.6,245.5c5,0.1,8.7,4.5,8.2,9.3c-0.6,5.3-7.1,9.8-12.4,8.7c-1.6-0.3-2.6-1.4-2.6-3.1c0-2.1,0-4.2,0-6.3c0-0.5,0-1,0-1.5
		C268.9,244.8,267.4,245.4,275.6,245.5z"/>
	<path class="st2" d="M345.8,292.2c3.4,2.6,10.1,0,11.5-3.9c3.2-8.5,0.1-9.4,11-9.1c0.4,0,0.7,0,1.1,0c6.7,0,7.3,0.4,9.3,6.8
		c0.4,1.2,0.7,2.4,0.8,3.5c0.3,2.1,1.8,2.8,3.2,3c2.4,0.3,5,0.2,7.5,0c0.5-0.1,2.6,0.1,1.9-2.2c-1.6-4.7-2.7-9.6-4.2-14.3
		c-3.2-10.3-6.7-20.6-9.6-30.9c-2.2-7.8-1.9-7.9-9.9-7.9c-1.9,0-3.7,0-5.6,0c-1.2,0-2.2,0.2-2.5,1.6c-1.6,5.9-3.4,11.6-5.2,17.4
		c-3.5,11.1-6.5,22.3-9.9,33.5C344.8,290.9,345,291.5,345.8,292.2z M363.3,264.9c1-3.1,1.9-6.2,2.3-9.5c0.2-1.3,0.6-3.1,2.6-3.1
		c1.8,0,2.3,1.7,2.4,2.8c0.4,3.3,1.6,6.4,2.4,9.5c1.6,6.3,1.5,6.4-5.1,6.4C362,271,361.6,270.4,363.3,264.9z"/>
	<path class="st2" d="M305.5,264.8c0,8.1,0.1,16.2-0.1,24.4c0,2.6,1,3.6,3.4,3.6c8.7,0,17.5,0,26.2,0c3.8,0,3.5-2.5,3.5-5
		c0-2.6-0.3-4.8-3.7-4.7c-3.6,0-7.2,0-10.9,0c-8.4-0.1-7.2,1.1-7.3-7.4c0-5.1,1.6-6.2,6.7-5c3.3,0.7,6.6,0.4,9.9,0
		c3.7-0.5,3.8-2.8,3.6-5.5c-0.2-2.9-2-3.9-4.7-3.9c-4,0.1-8-0.1-12,0.1c-2.5,0.1-3.7-0.6-3.6-3.3c0.2-2.6,0.1-5.2,0-7.9
		c-0.1-2.7,1.1-3.9,3.8-3.8c4.4,0.1,8.8-0.2,13.1,0.1c3.7,0.3,4-1.9,4.1-4.5c0-2.7-0.7-4.7-4.2-4.7c-8.1,0.2-16.2,0.2-24.4,0
		c-3.1-0.1-3.8,1.2-3.7,4C305.6,249,305.5,256.9,305.5,264.8z"/>
	<path class="st2" d="M400.8,265.2c0,7.9,0,15.7,0,23.6c0,2.1,0.5,3,2.9,3.3c6.2,0.7,12.3,1.1,18.4-0.1c7-1.4,13.8-3,18.8-8.8
		c3.6-4.2,5.4-9.3,6.1-14.6c1.1-8.5-0.1-16.6-6.3-23.3c-5.9-6.4-14-6.9-21.8-8c-4.6-0.6-9.1,0.8-13.7,0.7c-3.2-0.1-4.5,1.2-4.4,4.4
		C400.8,250,400.8,257.6,400.8,265.2z M412,264.7c0-5.1,0-10.2,0-15.3c0-2.2,0.7-3.7,3-3.8c9.7-0.6,17.4,2.2,19.7,12.8
		c1.9,8.5,1,16.4-6.7,22.4c-3.9,3-8.8,3.5-13.7,3c-1.8-0.2-2.4-1.8-2.4-3.6C412.1,274.9,412,269.8,412,264.7z"/>
	<path class="st2" d="M156.8,246.3c2.4-0.2,4.7-0.1,7.1,0c2.9,0.1,4.4,1.2,4.4,4.5c-0.2,12.4,0.1,24.8-0.1,37.1
		c-0.1,3.7,1.6,4.9,4.8,4.8c0.9,0,1.8-0.1,2.6,0c2.9,0.4,4-0.7,3.9-3.7c-0.2-6.2-0.1-12.5-0.1-18.7c0-6.1,0.1-12.3,0-18.4
		c-0.1-4.4,1-6.2,5.5-5.7c2.2,0.2,4.5,0,6.7,0c0.9,0,1.9,0.2,2.4-0.8c0.9-2,0.7-4.2,0.2-6.2c-0.4-1.8-2.1-2.1-3.9-2.1
		c-10.1,0.1-20.2,0-30.4,0c-6.1,0-6,0-6,6.1C153.9,245.6,154.4,246.5,156.8,246.3z"/>
	<path class="st0" d="M268.8,252.5c0,0.5,0,1,0,1.5c0,2.1,0,4.2,0,6.3c0,1.7,1,2.8,2.6,3.1c5.3,1.1,11.8-3.4,12.4-8.7
		c0.6-4.8-3.2-9.2-8.2-9.3C267.4,245.4,268.9,244.8,268.8,252.5z"/>
	<path class="st0" d="M367.9,271c6.6,0,6.6,0,5.1-6.4c-0.8-3.2-2-6.2-2.4-9.5c-0.1-1.1-0.6-2.9-2.4-2.8c-2,0-2.4,1.8-2.6,3.1
		c-0.4,3.3-1.4,6.4-2.3,9.5C361.6,270.4,362,271,367.9,271z"/>
	<path class="st0" d="M414.4,283.6c4.8,0.5,9.8,0.1,13.7-3c7.7-6,8.6-13.9,6.7-22.4c-2.3-10.6-10-13.4-19.7-12.8
		c-2.4,0.2-3.1,1.7-3,3.8c0.1,5.1,0,10.2,0,15.3c0,5.1,0.1,10.2,0,15.3C411.9,281.9,412.6,283.5,414.4,283.6z M417.1,247.7
		c11.9,0,17.5,9.6,15.6,20c-1.3,7.5-5.8,12.4-13.7,13.7c-3.7,0.6-4.8,0-4.8-3.8c0-4.4,0-8.7,0-13.1c0-4.6,0.1-9.2,0-13.9
		C414.2,248.6,415,247.7,417.1,247.7z"/>
</g>
</svg>
